<svg width="56" height="53" viewBox="0 0 56 53" fill="none" xmlns="http://www.w3.org/2000/svg">
<path d="M18.751 50.4915C19.9036 50.4915 20.8379 49.6036 20.8379 48.5082C20.8379 47.4129 19.9036 46.5249 18.751 46.5249C17.5984 46.5249 16.6641 47.4129 16.6641 48.5082C16.6641 49.6036 17.5984 50.4915 18.751 50.4915Z" stroke="black" stroke-width="4" stroke-linecap="round" stroke-linejoin="round"/>
<path d="M47.9678 50.4915C49.1204 50.4915 50.0547 49.6036 50.0547 48.5082C50.0547 47.4129 49.1204 46.5249 47.9678 46.5249C46.8152 46.5249 45.8809 47.4129 45.8809 48.5082C45.8809 49.6036 46.8152 50.4915 47.9678 50.4915Z" stroke="black" stroke-width="4" stroke-linecap="round" stroke-linejoin="round"/>
<path d="M2.05542 6.85913H10.4031L11.5605 13.0924M50.0545 40.5756H16.6638L11.5605 13.0924M11.5605 13.0924H24.8144" stroke="black" stroke-width="4" stroke-linecap="round" stroke-linejoin="round"/>
<path d="M16.6641 32.642H49.1991C49.4404 32.6422 49.6744 32.5629 49.861 32.4175C50.0477 32.2722 50.1757 32.0699 50.223 31.845L53.9795 13.9951C54.0098 13.8512 54.0061 13.7026 53.9687 13.5602C53.9312 13.4178 53.861 13.2851 53.7631 13.1716C53.6651 13.0581 53.5419 12.9667 53.4022 12.904C53.2626 12.8412 53.11 12.8087 52.9556 12.8088L38.4162 12.8088" stroke="black" stroke-width="4" stroke-linecap="round" stroke-linejoin="round"/>
<path d="M33.1729 1.50854C33.1729 0.818189 32.6132 0.258545 31.9229 0.258545C31.2325 0.258545 30.6729 0.818189 30.6729 1.50854L33.1729 1.50854ZM31.039 27.3256C31.5271 27.8138 32.3186 27.8138 32.8067 27.3256L40.7617 19.3707C41.2498 18.8825 41.2498 18.091 40.7617 17.6029C40.2735 17.1147 39.4821 17.1147 38.9939 17.6029L31.9229 24.674L24.8518 17.6029C24.3636 17.1147 23.5722 17.1147 23.084 17.6029C22.5959 18.091 22.5959 18.8825 23.084 19.3707L31.039 27.3256ZM30.6729 1.50854L30.6729 26.4417L33.1729 26.4417L33.1729 1.50854L30.6729 1.50854Z" fill="black"/>
</svg>
